#!OML:ASF G:\JayActor3\Patient Classification 1\Patient 1\Session 5\male.ASF
:FULLY-SPECIFIED
:DEGREES
1394
root -58.7245 16.9605 -4.97825 515.653 89.0609 871.145
lowerback 2.55804 0.233356 -0.838036
upperback 1.27878 0.310386 -1.64746
thorax -0.119052 0.166643 -1.22541
lowerneck -8.55493 -1.1687 1.58967
upperneck 11.6526 -2.01785 2.29989
head 4.91518 -0.740128 0.320098
rclavicle -2.98177e-015 -6.36111e-015
rhumerus -30.9498 -1.21288 -88.2903
rradius 26.1139
rwrist 3.11549
rhand -18.5602 -7.95895
rfingers 7.12502
rthumb 7.72965 -37.7977
lclavicle -2.98177e-015 -6.36111e-015
lhumerus -33.8973 5.31533 83.8614
lradius 29.5687
lwrist 20.1017
lhand -17.3882 25.1467
lfingers 7.12502
lthumb 8.86074 54.9407
rfemur -5.08969 -1.74847 22.1117
rtibia 30.1513
rfoot -37.318 -10.9468
rtoes -11.2663
lfemur -10.7209 10.8502 -24.0896
ltibia 22.4978
lfoot -18.7374 5.71054
ltoes -1.21065
1395
root -58.6793 16.9527 -5.00632 509.688 89.0992 865.26
lowerback 2.44135 0.25279 -0.896797
upperback 1.25886 0.336801 -1.67896
thorax -0.0738843 0.179651 -1.22484
lowerneck -8.46863 -1.21969 1.66361
upperneck 11.6007 -2.0707 2.11554
head 4.8819 -0.776647 0.248117
rclavicle 1.39149e-015 -4.37326e-015
rhumerus -30.9736 -1.07213 -88.3367
rradius 26.2693
rwrist 2.99124
rhand -18.5071 -8.00395
rfingers 7.12502
rthumb 7.78089 -37.8408
lclavicle 1.39149e-015 -4.37326e-015
lhumerus -33.9379 5.21907 83.8887
lradius 29.437
lwrist 20.2668
lhand -17.4504 25.2649
lfingers 7.12502
lthumb 8.80075 55.0614
rfemur -5.08925 -1.84828 21.9299
rtibia 30.5688
rfoot -37.301 -10.5392
rtoes -10.1286
lfemur -10.3146 11.0957 -24.1629
ltibia 22.3502
lfoot -18.9823 5.32792
ltoes -1.00711
1396
root -58.635 16.9434 -5.03463 504.307 89.1361 859.971
lowerback 2.36932 0.273877 -0.923399
upperback 1.2241 0.36495 -1.71584
thorax -0.0686604 0.19366 -1.24811
lowerneck -8.29117 -1.30206 1.65514
upperneck 11.5383 -2.16559 2.04792
head 4.8322 -0.829993 0.223704
rclavicle -6.70898e-015 -3.97569e-016
rhumerus -31.0179 -0.966166 -88.3873
rradius 26.4305
rwrist 2.87864
rhand -18.4697 -8.07004
rfingers 7.12502
rthumb 7.81699 -37.9055
lclavicle -6.70898e-015 -3.97569e-016
lhumerus -34.0148 5.08389 83.9113
lradius 29.338
lwrist 20.4471
lhand -17.5634 24.9298
lfingers 7.12502
lthumb 8.69167 54.7308
rfemur -5.11461 -2.00128 21.7572
rtibia 31.0546
rfoot -37.234 -10.0751
rtoes -8.8913
lfemur -9.9023 11.3358 -24.2077
ltibia 22.2204
lfoot -19.248 4.91913
ltoes -0.736625
1397
root -58.5913 16.9336 -5.06315 499.265 89.1738 855.036
lowerback 2.33934 0.296015 -0.925456
upperback 1.17967 0.393934 -1.75546
thorax -0.0966674 0.208199 -1.28824
lowerneck -8.11631 -1.37334 1.6169
upperneck 11.5111 -2.25118 2.05655
head 4.79503 -0.874168 0.22839
rclavicle 3.67752e-015 7.55382e-015
rhumerus -31.0799 -0.877796 -88.4408
rradius 26.6123
rwrist 2.75992
rhand -18.4186 -8.16368
rfingers 7.12502
rthumb 7.86628 -37.9973
lclavicle 3.67752e-015 7.55382e-015
lhumerus -34.1067 4.97742 83.9112
lradius 29.2396
lwrist 20.5809
lhand -17.6331 24.9918
lfingers 7.12502
lthumb 8.6244 54.7956
rfemur -5.17209 -2.18001 21.5919
rtibia 31.6139
rfoot -37.1133 -9.59305
rtoes -7.59761
lfemur -9.48619 11.5665 -24.2273
ltibia 22.1086
lfoot -19.5211 4.48527
ltoes -0.429844
1398
root -58.5481 16.9239 -5.09175 494.036 89.2038 849.924
lowerback 2.31573 0.314542 -0.937939
upperback 1.14723 0.418089 -1.78367
thorax -0.116165 0.220275 -1.31071
lowerneck -7.98024 -1.43046 1.50279
upperneck 11.5504 -2.3228 2.17117
head 4.78707 -0.906281 0.278676
rclavicle 9.79014e-015 -1.07344e-014
rhumerus -31.1187 -0.78299 -88.4806
rradius 26.7982
rwrist 2.63622
rhand -18.3803 -8.24404
rfingers 7.12502
rthumb 7.90332 -38.0763
lclavicle 9.79014e-015 -1.07344e-014
lhumerus -34.1861 5.00822 83.8803
lradius 29.1537
lwrist 20.5863
lhand -17.6529 25.1481
lfingers 7.12502
lthumb 8.60527 54.9527
rfemur -5.26882 -2.36564 21.4218
rtibia 32.2536
rfoot -36.9265 -9.09346
rtoes -6.2679
lfemur -9.07403 11.8045 -24.2387
ltibia 22.0067
lfoot -19.7723 4.02948
ltoes -0.095202
1399
root -58.5057 16.9142 -5.12021 489.678 89.216 845.689
lowerback 2.30456 0.323148 -0.958202
upperback 1.12275 0.428823 -1.80294
thorax -0.134804 0.225612 -1.31938
lowerneck -7.90824 -1.45326 1.41963
upperneck 11.6226 -2.35158 2.25842
head 4.79931 -0.9169 0.317672
rclavicle -1.54058e-015 4.37326e-015
rhumerus -31.1408 -0.677391 -88.5121
rradius 26.9955
rwrist 2.50457
rhand -18.3487 -8.33078
rfingers 7.12502
rthumb 7.93382 -38.1619
lclavicle -1.54058e-015 4.37326e-015
lhumerus -34.2643 5.10205 83.8399
lradius 29.0873
lwrist 20.533
lhand -17.681 25.052
lfingers 7.12502
lthumb 8.57823 54.8578
rfemur -5.40338 -2.55314 21.2515
rtibia 32.9785
rfoot -36.69 -8.56807
rtoes -4.90887
lfemur -8.67566 12.0469 -24.2455
ltibia 21.9154
lfoot -19.9885 3.55451
ltoes 0.238206
1400
root -58.4641 16.905 -5.14834 486.679 89.2125 842.813
lowerback 2.30879 0.317662 -0.988033
upperback 1.10241 0.42033 -1.81147
thorax -0.15828 0.221274 -1.31132
lowerneck -7.91181 -1.44657 1.38534
upperneck 11.7355 -2.34228 2.28185
head 4.83534 -0.909692 0.330763
rclavicle 1.08835e-014 -1.31198e-014
rhumerus -31.1443 -0.561512 -88.5359
rradius 27.1934
rwrist 2.37509
rhand -18.3405 -8.38142
rfingers 7.12502
rthumb 7.94173 -38.2122
lclavicle 1.08835e-014 -1.31198e-014
lhumerus -34.327 5.25303 83.7936
lradius 29.0149
lwrist 20.4397
lhand -17.6945 25.0591
lfingers 7.12502
lthumb 8.56514 54.8653
rfemur -5.58949 -2.72919 21.0828
rtibia 33.7949
rfoot -36.3867 -8.05475
rtoes -3.64762
lfemur -8.2956 12.2835 -24.2499
ltibia 21.8344
lfoot -20.1748 3.07269
ltoes 0.580162
1401
root -58.4236 16.8955 -5.17608 485.457 89.1995 841.717
lowerback 2.31619 0.300936 -1.02794
upperback 1.09797 0.396968 -1.8047
thorax -0.167643 0.209443 -1.2815
lowerneck -7.86493 -1.45738 1.38915
upperneck 11.7623 -2.34679 2.20447
head 4.83462 -0.91643 0.306233
rclavicle 5.11871e-015 -2.06736e-014
rhumerus -31.1181 -0.429857 -88.5484
rradius 27.4005
rwrist 2.22427
rhand -18.3428 -8.43966
rfingers 7.12502
rthumb 7.93948 -38.2706
lclavicle 5.11871e-015 -2.06736e-014
lhumerus -34.3677 5.42883 83.7615
lradius 28.9491
lwrist 20.3281
lhand -17.6946 25.0435
lfingers 7.12502
lthumb 8.56511 54.8498
rfemur -5.81375 -2.89073 20.9234
rtibia 34.7046
rfoot -36.0358 -7.53821
rtoes -2.47794
lfemur -7.9341 12.5108 -24.2474
ltibia 21.7736
lfoot -20.3325 2.59536
ltoes 0.936219
1402
root -58.3836 16.8862 -5.20349 485.54 89.1951 841.934
lowerback 2.33485 0.27738 -1.06282
upperback 1.10476 0.364582 -1.78424
thorax -0.17196 0.193066 -1.24027
lowerneck -7.81135 -1.48001 1.45874
upperneck 11.7375 -2.36131 2.01402
head 4.81468 -0.933763 0.235627
rclavicle 3.57812e-015 -1.63003e-014
rhumerus -31.0767 -0.288495 -88.555
rradius 27.6174
rwrist 2.06536
rhand -18.3523 -8.49351
rfingers 7.12502
rthumb 7.93028 -38.3248
lclavicle 3.57812e-015 -1.63003e-014
lhumerus -34.39 5.42747 83.8129
lradius 28.8866
lwrist 20.3941
lhand -17.775 24.6311
lfingers 7.12502
lthumb 8.48749 54.4406
rfemur -6.08632 -3.01828 20.7805
rtibia 35.7123
rfoot -35.6123 -7.05223
rtoes -1.47991
lfemur -7.57743 12.7217 -24.2259
ltibia 21.7344
lfoot -20.4857 2.13925
ltoes 1.34637
1403
root -58.3446 16.8765 -5.23058 487.518 89.2061 844.056
lowerback 2.38523 0.250036 -1.06879
upperback 1.11197 0.326977 -1.75792
thorax -0.193487 0.174146 -1.20928
lowerneck -7.6917 -1.53234 1.49808
upperneck 11.6669 -2.41163 1.84094
head 4.77006 -0.96995 0.17382
rclavicle -5.71506e-015 8.74653e-015
rhumerus -31.0359 -0.14575 -88.5724
rradius 27.8306
rwrist 1.83241
rhand -18.3788 -8.5181
rfingers 7.12502
rthumb 7.90471 -38.3503
lclavicle -5.71506e-015 8.74653e-015
lhumerus -34.407 5.29801 83.9105
lradius 28.8224
lwrist 20.5664
lhand -17.8964 24.1041
lfingers 7.12502
lthumb 8.37032 53.9183
rfemur -6.4028 -3.11006 20.6662
rtibia 36.8164
rfoot -35.0754 -6.60036
rtoes -0.615206
lfemur -7.22999 12.8791 -24.175
ltibia 21.7246
lfoot -20.6407 1.7223
ltoes 1.82362
1404
root -58.3068 16.8667 -5.25731 491.745 89.2213 848.436
lowerback 2.4701 0.216167 -1.05396
upperback 1.11928 0.280333 -1.72378
thorax -0.234234 0.150749 -1.18183
lowerneck -7.6764 -1.55202 1.53709
upperneck 11.6899 -2.42707 1.70948
head 4.77235 -0.983909 0.125975
rclavicle -8.44835e-016 2.8625e-014
rhumerus -31.0033 0.00034772 -88.5919
rradius 28.0628
rwrist 1.60131
rhand -18.3543 -8.60844
rfingers 7.12502
rthumb 7.92834 -38.4398
lclavicle -8.44835e-016 2.8625e-014
lhumerus -34.4239 5.18726 84.005
lradius 28.7659
lwrist 20.706
lhand -18.0129 23.5051
lfingers 7.12502
lthumb 8.25791 53.3237
rfemur -6.76597 -3.16526 20.5747
rtibia 38.0168
rfoot -34.4131 -6.17589
rtoes 0.100719
lfemur -6.88887 12.9927 -24.1025
ltibia 21.7359
lfoot -20.7846 1.34205
ltoes 2.37411
1405
root -58.2697 16.8563 -5.28389 497.998 89.239 854.854
lowerback 2.58425 0.178486 -1.01236
upperback 1.12641 0.228634 -1.68557
thorax -0.291499 0.124891 -1.16509
lowerneck -7.67677 -1.56123 1.53776
upperneck 11.7536 -2.43328 1.65332
head 4.79125 -0.989218 0.107896
rclavicle 2.83268e-015 1.31198e-014
rhumerus -30.982 0.151433 -88.6193
rradius 28.3069
rwrist 1.36166
rhand -18.2986 -8.73778
rfingers 7.12502
rthumb 7.98217 -38.5671
lclavicle 2.83268e-015 1.31198e-014
lhumerus -34.4305 5.11499 84.0833
lradius 28.6919
lwrist 20.788
lhand -18.0541 23.592
lfingers 7.12502
lthumb 8.21808 53.4122
rfemur -7.16968 -3.18459 20.5064
rtibia 39.306
rfoot -33.6298 -5.83154
rtoes 0.575004
lfemur -6.55666 13.0482 -24.0113
ltibia 21.7745
lfoot -20.929 1.01604
ltoes 2.96472
